<svg xmlns="http://www.w3.org/2000/svg" width="430" height="430" style="width:100%;height:100%;transform:translate3d(0,0,0);content-visibility:visible" viewBox="0 0 430 430"><defs><clipPath id="g"><path d="M0 0h430v430H0z"/></clipPath><clipPath id="h"><path d="M0 0h430v430H0z"/></clipPath><clipPath id="n"><path d="M0 0h430v430H0z"/></clipPath><clipPath id="e"><path d="M0 0h430v430H0z"/></clipPath><clipPath id="i"><path d="M0 0h430v430H0z"/></clipPath><clipPath id="m"><path d="M0 0h430v430H0z"/></clipPath><clipPath id="f"><path d="M0 0h430v430H0z"/></clipPath><clipPath id="k"><path d="M0 0h430v430H0z"/></clipPath><filter id="a" width="100%" height="100%" x="0%" y="0%" filterUnits="objectBoundingBox"><feComponentTransfer in="SourceGraphic"><feFuncA tableValues="1.0 0.0" type="table"/></feComponentTransfer></filter><filter id="c" width="100%" height="100%" x="0%" y="0%" filterUnits="objectBoundingBox"><feComponentTransfer in="SourceGraphic"><feFuncA tableValues="1.0 0.0" type="table"/></feComponentTransfer></filter><mask id="l" mask-type="alpha"><g filter="url(#a)"><path fill="#fff" d="M0 0h430v430H0z" opacity="0"/><use xmlns:ns1="http://www.w3.org/1999/xlink" ns1:href="#b"/></g></mask><mask id="j" mask-type="alpha"><g filter="url(#c)"><path fill="#fff" d="M0 0h430v430H0z" opacity="0"/><use xmlns:ns2="http://www.w3.org/1999/xlink" ns2:href="#d"/></g></mask><g id="d" clip-path="url(#e)" style="display:block"><g style="display:block"><path fill="red" d="M301.116 319.692H130.652m170.388-31.75H130.576m-1.271-198.715c2.244 40.623 39.756 72.93 85.691 72.93 45.946 0 83.457-32.307 85.701-72.93m-140.195-2.225c1.427 25.834 25.283 46.38 54.496 46.38 29.22 0 53.075-20.546 54.502-46.38m54.501 29v203h-213v-203h213z"/><path fill-opacity="0" stroke="#07A889" stroke-linecap="round" stroke-linejoin="round" stroke-width="0" d="M301.116 319.692H130.652m170.388-31.75H130.576m-1.271-198.715c2.244 40.623 39.756 72.93 85.691 72.93 45.946 0 83.457-32.307 85.701-72.93m-140.195-2.225c1.427 25.834 25.283 46.38 54.496 46.38 29.22 0 53.075-20.546 54.502-46.38" class="secondary"/><path fill="red" d="M324 116v203H111V116h213z"/><path fill-opacity="0" stroke="#07A889" stroke-width="0" d="M324 116v203H111V116h213z" class="secondary"/></g><g style="display:block"><path fill="red" d="M215 82.341a624.292 624.292 0 0 0-72.556 4.206c-39.764 4.635-69.594 38.63-69.594 78.664v196.564h56.848V170.554"/><path fill-opacity="0" stroke="#121330" stroke-linecap="round" stroke-linejoin="round" stroke-width="0" d="M215 82.341a624.292 624.292 0 0 0-72.556 4.206c-39.764 4.635-69.594 38.63-69.594 78.664v196.564h56.848V170.554" class="primary"/></g><g style="display:block"><path fill="red" d="M215 82.341a624.292 624.292 0 0 1 72.556 4.206c39.764 4.635 69.594 38.63 69.594 78.664v196.564h-56.848V170.554"/><path fill-opacity="0" stroke="#121330" stroke-linecap="round" stroke-linejoin="round" stroke-width="0" d="M215 82.341a624.292 624.292 0 0 1 72.556 4.206c39.764 4.635 69.594 38.63 69.594 78.664v196.564h-56.848V170.554" class="primary"/></g></g><g id="b" clip-path="url(#f)" style="display:none"><g style="display:none"><path/><path fill-opacity="0" stroke-linecap="round" stroke-linejoin="round" class="secondary"/><path/><path fill-opacity="0" class="secondary"/></g><g style="display:none"><path/><path fill-opacity="0" stroke-linecap="round" stroke-linejoin="round" class="primary"/></g><g style="display:none"><path/><path fill-opacity="0" stroke-linecap="round" stroke-linejoin="round" class="primary"/></g></g></defs><g clip-path="url(#g)"><g fill="none" clip-path="url(#h)" style="display:block"><g clip-path="url(#i)" mask="url(#j)" style="display:block"><g clip-path="url(#k)" mask="url(#l)" style="display:none"><path class="secondary" style="display:none"/><path class="primary" style="display:none"/><path class="primary" style="display:none"/></g><g clip-path="url(#m)" style="display:none"><path class="secondary" style="display:none"/><path class="primary" style="display:none"/><path class="primary" style="display:none"/></g></g><g stroke-linecap="round" stroke-linejoin="round" stroke-width="12.6" clip-path="url(#n)" style="display:block"><path stroke="#07A889" d="M86.115 194H-84.349m170.388-31.75H-84.425m-1.271-198.715c2.244 40.623 39.756 72.93 85.691 72.93 45.946 0 83.457-32.307 85.701-72.93M-54.499-38.69C-53.072-12.856-29.216 7.69-.003 7.69c29.22 0 53.075-20.546 54.502-46.38" class="secondary" style="display:block" transform="translate(215.001 125.692)"/><path stroke="#121330" d="M71.075-139.717a624.292 624.292 0 0 0-72.556 4.206c-39.764 4.635-69.594 38.63-69.594 78.664v196.564h56.848V-51.504" class="primary" style="display:block" transform="translate(143.925 222.058)"/><path stroke="#121330" d="M-71.075-139.717a624.292 624.292 0 0 1 72.556 4.206c39.764 4.635 69.594 38.63 69.594 78.664v196.564H14.227V-51.504" class="primary" style="display:block" transform="translate(286.075 222.058)"/></g></g></g></svg>